<?xml version="1.0" encoding="utf-8"?>
<svg viewBox="1027.300048828125 120.79991912841797 314.00048828125 251.39996337890625" width="314.00048828125" height="251.39996337890625" xmlns="http://www.w3.org/2000/svg"><g transform="matrix(1, 0, 0, 1, 0, 0)">
	<path class="st1" d="M1027.3,266.4l2.2-22.7c2.6,0.1,3.1,3.8,2.4,6.3c-0.6,2.5-1.2,5.9,1.1,7.1l1-3l1.8,3.8c-0.5-2.5,1-5.3,3.4-6.3&#10;&#9;&#9;c0.1,5.7,0.2,11.4,0.3,17c0,0.7,0,1.3,0.3,1.9c0.8,1.5,2.8,1.5,4.5,1.6c1.7,0.1,3.7,1.2,3.4,2.8c1.2-0.4,2-1.9,1.5-3.2&#10;&#9;&#9;c11.4,5.2,25.6,3.7,35.6-3.8c2-1.5,3.9-3.2,4.6-5.7c0.4-1.3,1.2-2.5,2.3-3.3c4.3-2.9,5.1,2.4,7.4,3.6c2,1.1,5.1,0.4,7.4,0.5&#10;&#9;&#9;c3.3,0.1,5.8,1.7,8.9,1.9c3.5,0.1,5.1-2.3,7.8-4.1c1,0.9,1.8,2.1,2.3,3.3c3.5,1,4-3.4,6.7-2.6c0.6,0.2,1.4,2.4,2.2,2.9&#10;&#9;&#9;c0.9,0.6,2.4,0.6,3.4,0.8c3.4,0.7,7.1,0.3,10.5,1.2c3.7,0.9,4.5,3.9,8.3,4c2.4,0,5.8-0.5,8.2-1.1c1.5-0.4,2.5-1.5,4.1-1.5&#10;&#9;&#9;c2.4-0.1,4,2,6.3,1.9c3.3-0.1,3.9-3.3,6.4-4.4c3.1-1.4,6.7-0.6,9.9-2.3c2.2-1.1,6.6-2.7,5.5-5.6c-1.5-4.2-6.4-1.7-4.4-8.1&#10;&#9;&#9;c1.5,0.5,1,1.6,2.1,2.6c0.6,0.5,1.6,1.3,2.3,1.9c2.3,2.1,2.8,2.2,5.2,1.4c1.7-0.6,2-1.7,4-1.9c2.4-0.2,4.1,1.4,6.4,0.2&#10;&#9;&#9;c4.8-2.3,1.8-8.2,3.7-11.5c2.1-3.7,3.6,2.3,6.2-1.3c0.8-1.1,0.1-2.2,0.5-3.3c0.5-1.5,1.7-2.9,2-4.5c0.7-3.4-6.7-12,1.4-6.9&#10;&#9;&#9;c2.5-2.7,2.1-6.5,2.3-10c2-0.7,3.8-0.4,5.8-1.3c2.2-1,2.9-2.6,4.5-4.7c3.7-4.9,10.3-3.9,14.1-7.4c-0.2,0.2-0.1-1.1-0.2-0.8&#10;&#9;&#9;c3.4-4.7,5.8-10.6,9.5-15.1c3.7-4.4,8.3-7.9,11.9-12.3c3.7-4.6,8.9-7.8,12.6-12.3c1.3-1.6,1.6-3.8,2.9-4.8c0.2-0.2,2.5,0.4,3.1,0.1&#10;&#9;&#9;c1.1-0.4,2.4-1.7,3.2-2.4c2.9-2.3,5.5-5.1,8.6-7.1c3.3-2.1,6.2-3.3,8.4-6.9c1.8-3,1.6-6.1,2.6-9.3c0.6-1.9,2.1-7.7,3.4-9&#10;&#9;&#9;c2-1.9,1.3,0.2,3.3,0c1.3-0.1,1.9-0.9,3.3-1.1c1.2,5.4-1.4,8.4-2.9,13.3c-1.2,4,0.5,6.4,1.5,9.6c-2.3,0.9-1.1,3.4-0.7,5.3&#10;&#9;&#9;c0.8,3.7,0.9,4.2,5.1,3c0.9,2.1,3.7,0.5,5.6,1.4c2.3,1.1,2.9,2.5,3.3,5.2c0.8,5-0.5,9.1-0.8,14c-3-2.8-7.6-3.1-5.2,2.3&#10;&#9;&#9;c-2.4,1.8-8,5.5-1.3,5.9c5.5,0.3,2.6-5,6-5.5c5-0.8,0.3,9.7,0.1,12.1c-0.4,5.2,1.2,9.9-0.9,14.9c-2.3,5.6-3.3,8.6-9.8,9.4&#10;&#9;&#9;c-2.3,0.3-4.6,1.2-6.5-0.2c-2.8-2-1.2-5.8-3-8.3c-3.6-4.9-10.6-0.9-13.3,2.8c-4.1,5.6,3.8,11.1,0.3,17.7c-0.9,1.6-2.7,2.8-2.8,4.7&#10;&#9;&#9;c-0.1,1.9,1.1,6.4,1.6,8.5c0.3,1.2,1.7,1.4,1.8,2.9c0.1,2.2-1.6,3.1-2.6,4.8c-1.7,3-3.1,6.1-1.9,9.8c3.3-0.4,8.3-2.7,11.8-0.8&#10;&#9;&#9;c3.1,1.7,0,3,1,5.4c0.7,1.8,4.2,2.3,2.9,5.3c-1.6,3.7-8.5,3.4-11.6,3.5c-6.9,0.1-13.4,0.1-19.6,3.6c-5.2,2.9-0.9,4.6,1.4,7.5&#10;&#9;&#9;c1.3,1.5,1.9,1.8,2.2,3.9c0.3,1.9-1.1,3.7-1.9,5.3c-1.9,4-4.6,9.5-5.6,13.8c-0.5,2.4,0.2,2.8-1.6,4.8c-1.7,2-2.5,1.8-3.2,4.7&#10;&#9;&#9;c-1.3,4.9-2.6,9.3-5,14c-3,6.1-5.3,11.1-6.1,18c-0.7,6.4-0.4,13.1-0.7,19.5c-0.1,1.6,0.7,4.9-0.7,6.1c-0.6,0.5-1.9-0.3-2.4,0.1&#10;&#9;&#9;c0,0-2.2,1.5-1.7,1.3c-2.7,1-5.5,0.8-8.9,0.3c-8.1-1.3-16.1-2.6-24.3-3.4c-6.4-0.6-12.8-1.2-19.1-2.3c-4-0.7-11.1-0.2-14.4-1.8&#10;&#9;&#9;c-3.6-1.7-9.8-2.1-13.6-3c-3.8-0.9-7.3-2-11.2-2.5c-6.2-0.9-12.4-0.5-18.6-1.8c-4.9-1-9.9-2.5-14.9-3.4&#10;&#9;&#9;c-12.8-2.2-25.9-3.2-38.9-3.3c-1.8,0-3.5-0.6-4.9-1.7c-0.9-0.7-2-1.4-3-2.1c-3.3-2.6-4.5-4.2-6-8.1c-3.8-9.4-11-19.8-17.3-27.7&#10;&#9;&#9;c-6.3-7.9-13.8-15.2-20.5-22.7C1038,281.9,1030.7,273.3,1027.3,266.4z" style="fill: rgb(204, 204, 204); opacity: 1;"/>
	<path class="st1" d="M1173.4,255c-2.9,1.3-4.6,1.2-7.8,1.9c-2.8,0.6-3.4,2.6-5.9,3.6c2.3,1.6,4.2,0.4,6.6,0.9&#10;&#9;&#9;c1.9,0.4,3.1,2.6,5.7,1.8c2.6-0.8,0.8-2.3,4.2-1.7c2,0.3,4.5,2.6,5.3-0.6c-2.4-2-5.3-0.7-5.9-4.8c-0.6-0.1-1.5-0.2-2.2-0.1" style="fill: rgb(204, 204, 204); opacity: 1;"/>
	<path class="st1" d="M1137.8,249.8c-1.8,0.6-3.6,0.4-5.1-0.3c-1,1.7-0.3,3.7,1.8,4c2.6,2.5,5,0.7,6.3-1.5c0.5-0.8,2.5-0.6,1-2.5&#10;&#9;&#9;C1140.8,248.3,1138.5,248.6,1137.8,249.8z" style="fill: rgb(204, 204, 204); opacity: 1;"/>
	<path class="st1" d="M1094,246.9c-3.4,1.5-0.4,3.9,0.7,5.2C1098.6,256.4,1099.1,244.7,1094,246.9z" style="fill: rgb(204, 204, 204); opacity: 1;"/>
	<path class="st1" d="M1198.6,246.9c-1.5,0.9-0.8,3.5,1.1,4.2c2.5,0.9,3.6-1.7,1.1-2.7C1200.9,247.1,1199.6,246.2,1198.6,246.9z" style="fill: rgb(204, 204, 204); opacity: 1;"/>
</g></svg>